<?xml version="1.0" standalone="no"?><!DOCTYPE svg PUBLIC "-//W3C//DTD SVG 1.1//EN" "http://www.w3.org/Graphics/SVG/1.1/DTD/svg11.dtd"><svg t="1598094259321" class="icon" viewBox="0 0 1024 1024" version="1.1" xmlns="http://www.w3.org/2000/svg" p-id="2469" xmlns:xlink="http://www.w3.org/1999/xlink" width="32" height="32"><defs><style type="text/css"></style></defs><path d="M818 159l38 0c30.928 0 56 25.072 56 56L912 808.00000001c0 30.928-25.072 56-56 55.99999999l-38 0c-30.928 0-56-25.072-56-56l0-593c0-30.928 25.072-56 56-56z m-168.686 386.191l-422.304 303.40000001c-32.294 23.201-77.282 15.83-100.484-16.46400001A72 72 0 0 1 113 790.117l0-559.053c0-39.764 32.235-72 72-72a72 72 0 0 1 39.95 12.1L647.712 453.123c25.73 17.16000001 32.677 51.93 15.517 77.66a56 56 0 0 1-13.915 14.408z" p-id="2470" fill="#707070"></path></svg>