<?xml version="1.0" standalone="no"?><!DOCTYPE svg PUBLIC "-//W3C//DTD SVG 1.1//EN" "http://www.w3.org/Graphics/SVG/1.1/DTD/svg11.dtd"><svg t="1596440509375" class="icon" viewBox="0 0 1024 1024" version="1.1" xmlns="http://www.w3.org/2000/svg" p-id="5296" xmlns:xlink="http://www.w3.org/1999/xlink" width="32" height="32"><defs><style type="text/css"></style></defs><path d="M511.989761 0C228.120434 0 0.732123 224.982031 0.732123 508.528814c0 283.551902 227.388311 514.774901 511.257638 514.774901 283.894925 0 511.278116-231.243478 511.278116-514.774901 0-283.526304-227.383191-508.528814-511.278116-508.528814z m-0.660447 945.964862c-241.534163 0-434.512674-197.00263-434.512675-438.239848 0-241.257697 192.952912-431.763372 434.512675-431.763372 241.534163 0 434.492195 190.505675 434.492195 431.763372-0.025599 241.237218-192.958032 438.239848-434.492195 438.239848zM463.367552 324.950152c-9.717274-8.160872-26.525394-8.160872-36.242668 0v374.427359c9.717274 8.181351 26.525394 8.181351 36.242668 0l212.750962-172.79648c9.696795-8.160872 9.696795-21.39029 0-29.551162L463.367552 324.950152z" fill="#bfbfbf" p-id="5297"></path></svg>